
<?xml version="1.0" encoding="UTF-8" standalone="no"?>
<!-- Created with Inkscape (http://www.inkscape.org/) -->

<svg
   xmlns:dc="http://purl.org/dc/elements/1.1/"
   xmlns:cc="http://creativecommons.org/ns#"
   xmlns:rdf="http://www.w3.org/1999/02/22-rdf-syntax-ns#"
   xmlns:svg="http://www.w3.org/2000/svg"
   xmlns="http://www.w3.org/2000/svg"
   xmlns:xlink="http://www.w3.org/1999/xlink"
   xmlns:sodipodi="http://sodipodi.sourceforge.net/DTD/sodipodi-0.dtd"
   xmlns:inkscape="http://www.inkscape.org/namespaces/inkscape"
   width="122.20058"
   height="153.66512"
   id="svg6990"
   version="1.1"
   inkscape:version="0.48.2 r9819"
   sodipodi:docname="Wikivoyage_fantasy_balloon_logo4_lenkastabilo_blues_favicon.svg">
  <defs
     id="defs6992">
    <radialGradient
       inkscape:collect="always"
       xlink:href="#linearGradient3940-0-7-8-5"
       id="radialGradient10684"
       gradientUnits="userSpaceOnUse"
       gradientTransform="matrix(-3.8335187,1.076552,-4.0017889,-14.250064,-2607.0794,-3544.5035)"
       cx="-201.23479"
       cy="-385.81235"
       fx="-201.23479"
       fy="-385.81235"
       r="9.1544819" />
    <linearGradient
       inkscape:collect="always"
       id="linearGradient3940-0-7-8-5">
      <stop
         style="stop-color:#4b2202;stop-opacity:1;"
         offset="0"
         id="stop3942-5-40-40-0" />
      <stop
         style="stop-color:#4b2202;stop-opacity:0;"
         offset="1"
         id="stop3944-9-9-7-2" />
    </linearGradient>
    <linearGradient
       inkscape:collect="always"
       xlink:href="#linearGradient8623"
       id="linearGradient10687"
       gradientUnits="userSpaceOnUse"
       gradientTransform="translate(-1691.9995,1584)"
       x1="1819.9116"
       y1="-1325.8252"
       x2="1896.1699"
       y2="-1212.7676" />
    <linearGradient
       id="linearGradient8623"
       gradientUnits="userSpaceOnUse"
       x1="1819.9116"
       y1="-1325.8252"
       x2="1896.1699"
       y2="-1212.7676"
       gradientTransform="translate(-1691.9995,1584)">
      <stop
         offset="0"
         style="stop-color:#144b4d;stop-opacity:1"
         id="stop8625" />
      <stop
         offset="1"
         style="stop-color:#0f2324;stop-opacity:1"
         id="stop8627" />
    </linearGradient>
    <clipPath
       id="SVGID_2_-81-80">
      <path
         id="use286-5-1"
         d="m 175.915,383.545 c 0,0 8.5,2.5 18,-4.5 5.248,-3.867 54.5,-77 24.5,-110.5 -13.826,-14.508 -33.16,-20.675 -58,-18.5 -33.354,7.478 -52.022,29.145 -56,65 -5.219,33.555 24.65,49.672 71.5,68.5 z"
         inkscape:connector-curvature="0" />
    </clipPath>
    <linearGradient
       inkscape:collect="always"
       xlink:href="#linearGradient8446"
       id="linearGradient10689"
       gradientUnits="userSpaceOnUse"
       gradientTransform="translate(-1691.9995,1584)"
       x1="1863.6636"
       y1="-1266.9551"
       x2="1915.4146"
       y2="-1266.9551" />
    <linearGradient
       gradientTransform="translate(-1691.9995,1584)"
       y2="-1266.9551"
       x2="1915.4146"
       y1="-1266.9551"
       x1="1863.6636"
       gradientUnits="userSpaceOnUse"
       id="linearGradient8446">
      <stop
         id="stop8448"
         style="stop-color:#009047;stop-opacity:1"
         offset="0" />
      <stop
         id="stop8450"
         style="stop-color:#347052;stop-opacity:1"
         offset="1" />
    </linearGradient>
    <clipPath
       id="clipPath6916">
      <path
         id="path6918"
         d="m 175.915,383.545 c 0,0 8.5,2.5 18,-4.5 5.248,-3.867 54.5,-77 24.5,-110.5 -13.826,-14.508 -33.16,-20.675 -58,-18.5 -33.354,7.478 -52.022,29.145 -56,65 -5.219,33.555 24.65,49.672 71.5,68.5 z"
         inkscape:connector-curvature="0" />
    </clipPath>
    <linearGradient
       inkscape:collect="always"
       xlink:href="#linearGradient8440"
       id="linearGradient10691"
       gradientUnits="userSpaceOnUse"
       gradientTransform="translate(-1691.9995,1584)"
       x1="1851.4409"
       y1="-1222.6426"
       x2="1924.7854"
       y2="-1313.2155" />
    <linearGradient
       gradientTransform="translate(-1691.9995,1584)"
       y2="-1313.2155"
       x2="1924.7854"
       y1="-1222.6426"
       x1="1851.4409"
       gradientUnits="userSpaceOnUse"
       id="linearGradient8440">
      <stop
         id="stop8442"
         style="stop-color:#15874e;stop-opacity:1"
         offset="0" />
      <stop
         id="stop8444"
         style="stop-color:#91d7b4;stop-opacity:1"
         offset="1" />
    </linearGradient>
    <clipPath
       id="clipPath6924">
      <path
         id="path6926"
         d="m 175.915,383.545 c 0,0 8.5,2.5 18,-4.5 5.248,-3.867 54.5,-77 24.5,-110.5 -13.826,-14.508 -33.16,-20.675 -58,-18.5 -33.354,7.478 -52.022,29.145 -56,65 -5.219,33.555 24.65,49.672 71.5,68.5 z"
         inkscape:connector-curvature="0" />
    </clipPath>
    <linearGradient
       inkscape:collect="always"
       xlink:href="#linearGradient8651"
       id="linearGradient10693"
       gradientUnits="userSpaceOnUse"
       gradientTransform="translate(-1691.9995,1584)"
       x1="1781.3901"
       y1="-1284.2949"
       x2="1884.0618"
       y2="-1217.6193" />
    <linearGradient
       id="linearGradient8651"
       gradientUnits="userSpaceOnUse"
       x1="1781.3901"
       y1="-1284.2949"
       x2="1884.0618"
       y2="-1217.6193"
       gradientTransform="translate(-1691.9995,1584)">
      <stop
         offset="0"
         style="stop-color:#51b8ed;stop-opacity:1"
         id="stop8653" />
      <stop
         offset="0.6797"
         style="stop-color:#095e8a;stop-opacity:1"
         id="stop8655" />
      <stop
         offset="1"
         style="stop-color:#053752;stop-opacity:1"
         id="stop8657" />
    </linearGradient>
    <clipPath
       id="clipPath6933">
      <path
         id="path6935"
         d="m 175.915,383.545 c 0,0 8.5,2.5 18,-4.5 5.248,-3.867 54.5,-77 24.5,-110.5 -13.826,-14.508 -33.16,-20.675 -58,-18.5 -33.354,7.478 -52.022,29.145 -56,65 -5.219,33.555 24.65,49.672 71.5,68.5 z"
         inkscape:connector-curvature="0" />
    </clipPath>
    <linearGradient
       inkscape:collect="always"
       xlink:href="#linearGradient8539"
       id="linearGradient10695"
       gradientUnits="userSpaceOnUse"
       gradientTransform="translate(-1691.9995,1584)"
       x1="1831.7583"
       y1="-1330.2778"
       x2="1896.2441"
       y2="-1208.9976" />
    <linearGradient
       id="linearGradient8539"
       gradientUnits="userSpaceOnUse"
       x1="1831.7583"
       y1="-1330.2778"
       x2="1896.2441"
       y2="-1208.9976"
       gradientTransform="translate(-1691.9995,1584)">
      <stop
         offset="0"
         style="stop-color:#00aab0;stop-opacity:1"
         id="stop8541" />
      <stop
         offset="0.7891"
         style="stop-color:#005f62;stop-opacity:1"
         id="stop8543" />
      <stop
         offset="1"
         style="stop-color:#144b4d;stop-opacity:1"
         id="stop8545" />
    </linearGradient>
    <clipPath
       id="clipPath6942">
      <path
         id="path6944"
         d="m 175.915,383.545 c 0,0 8.5,2.5 18,-4.5 5.248,-3.867 54.5,-77 24.5,-110.5 -13.826,-14.508 -33.16,-20.675 -58,-18.5 -33.354,7.478 -52.022,29.145 -56,65 -5.219,33.555 24.65,49.672 71.5,68.5 z"
         inkscape:connector-curvature="0" />
    </clipPath>
    <linearGradient
       inkscape:collect="always"
       xlink:href="#SVGID_7_-9-2-7-0-6-0"
       id="linearGradient10119-4"
       gradientUnits="userSpaceOnUse"
       gradientTransform="translate(-1691.9995,1584)"
       x1="1831.7583"
       y1="-1330.2778"
       x2="1896.2441"
       y2="-1208.9976" />
    <linearGradient
       id="SVGID_7_-9-2-7-0-6-0"
       gradientUnits="userSpaceOnUse"
       x1="1831.7583"
       y1="-1330.2778"
       x2="1896.2441"
       y2="-1208.9976"
       gradientTransform="translate(-1691.9995,1584)">
      <stop
         offset="0"
         style="stop-color:#00B052"
         id="stop319-95-1-8-2-5-9" />
      <stop
         offset="0.7891"
         style="stop-color:#144D29"
         id="stop321-5-6-3-4-1-4" />
      <stop
         offset="1"
         style="stop-color:#144D29"
         id="stop323-5-8-5-8-0-8" />
    </linearGradient>
    <clipPath
       id="SVGID_2_-81-4-7-7-8-8">
      <path
         id="use286-5-5-7-4-0-2"
         d="m 175.915,383.545 c 0,0 8.5,2.5 18,-4.5 5.248,-3.867 54.5,-77 24.5,-110.5 -13.826,-14.508 -33.16,-20.675 -58,-18.5 -33.354,7.478 -52.022,29.145 -56,65 -5.219,33.555 24.65,49.672 71.5,68.5 z"
         inkscape:connector-curvature="0" />
    </clipPath>
    <linearGradient
       inkscape:collect="always"
       xlink:href="#SVGID_6_-4-1-8-5-0-5"
       id="linearGradient9248-4"
       gradientUnits="userSpaceOnUse"
       gradientTransform="translate(-1691.9995,1584)"
       x1="1781.3901"
       y1="-1284.2949"
       x2="1884.0618"
       y2="-1217.6193" />
    <linearGradient
       id="SVGID_6_-4-1-8-5-0-5"
       gradientUnits="userSpaceOnUse"
       x1="1781.3901"
       y1="-1284.2949"
       x2="1884.0618"
       y2="-1217.6193"
       gradientTransform="translate(-1691.9995,1584)">
      <stop
         offset="0"
         style="stop-color:#F7B512"
         id="stop310-9-4-0-0-7-5" />
      <stop
         offset="0.6797"
         style="stop-color:#968A0A"
         id="stop312-3-2-1-2-3-1" />
      <stop
         offset="1"
         style="stop-color:#968A0A"
         id="stop314-1-3-25-8-4-7" />
    </linearGradient>
    <clipPath
       id="clipPath10145-1">
      <path
         id="path10147-1"
         d="m 175.915,383.545 c 0,0 8.5,2.5 18,-4.5 5.248,-3.867 54.5,-77 24.5,-110.5 -13.826,-14.508 -33.16,-20.675 -58,-18.5 -33.354,7.478 -52.022,29.145 -56,65 -5.219,33.555 24.65,49.672 71.5,68.5 z"
         inkscape:connector-curvature="0" />
    </clipPath>
    <linearGradient
       inkscape:collect="always"
       xlink:href="#SVGID_5_-6-5-81-1-8-2"
       id="linearGradient9246-5"
       gradientUnits="userSpaceOnUse"
       gradientTransform="translate(-1691.9995,1584)"
       x1="1851.4409"
       y1="-1222.6426"
       x2="1924.7854"
       y2="-1313.2155" />
    <linearGradient
       id="SVGID_5_-6-5-81-1-8-2"
       gradientUnits="userSpaceOnUse"
       x1="1851.4409"
       y1="-1222.6426"
       x2="1924.7854"
       y2="-1313.2155"
       gradientTransform="translate(-1691.9995,1584)">
      <stop
         offset="0"
         style="stop-color:#598400;stop-opacity:1"
         id="stop303-62-2-8-9-3-7" />
      <stop
         id="stop3793-6"
         style="stop-color:#a0d12b;stop-opacity:1"
         offset="0.5" />
      <stop
         offset="1"
         style="stop-color:#DAE4AA"
         id="stop305-9-7-26-8-7-1" />
    </linearGradient>
    <clipPath
       id="clipPath10153-4">
      <path
         id="path10155-2"
         d="m 175.915,383.545 c 0,0 8.5,2.5 18,-4.5 5.248,-3.867 54.5,-77 24.5,-110.5 -13.826,-14.508 -33.16,-20.675 -58,-18.5 -33.354,7.478 -52.022,29.145 -56,65 -5.219,33.555 24.65,49.672 71.5,68.5 z"
         inkscape:connector-curvature="0" />
    </clipPath>
    <linearGradient
       inkscape:collect="always"
       xlink:href="#SVGID_3_-3-8-0-1-3-6"
       id="linearGradient9242-1"
       gradientUnits="userSpaceOnUse"
       gradientTransform="translate(-1691.9995,1584)"
       x1="1819.9116"
       y1="-1325.8252"
       x2="1896.1699"
       y2="-1212.7676" />
    <linearGradient
       id="SVGID_3_-3-8-0-1-3-6"
       gradientUnits="userSpaceOnUse"
       x1="1819.9116"
       y1="-1325.8252"
       x2="1896.1699"
       y2="-1212.7676"
       gradientTransform="translate(-1691.9995,1584)">
      <stop
         offset="0"
         style="stop-color:#144D29"
         id="stop289-4-8-7-3-9-8" />
      <stop
         offset="1"
         style="stop-color:#0F2415"
         id="stop291-08-2-1-8-8-5" />
    </linearGradient>
    <clipPath
       id="clipPath10165-7">
      <path
         id="path10167-6"
         d="m 175.915,383.545 c 0,0 8.5,2.5 18,-4.5 5.248,-3.867 54.5,-77 24.5,-110.5 -13.826,-14.508 -33.16,-20.675 -58,-18.5 -33.354,7.478 -52.022,29.145 -56,65 -5.219,33.555 24.65,49.672 71.5,68.5 z"
         inkscape:connector-curvature="0" />
    </clipPath>
    <linearGradient
       inkscape:collect="always"
       xlink:href="#SVGID_4_-3-1-7-7-7-8"
       id="linearGradient10121-1"
       gradientUnits="userSpaceOnUse"
       gradientTransform="translate(-1691.9995,1584)"
       x1="1863.6636"
       y1="-1266.9551"
       x2="1915.4146"
       y2="-1266.9551" />
    <linearGradient
       id="SVGID_4_-3-1-7-7-7-8"
       gradientUnits="userSpaceOnUse"
       x1="1863.6636"
       y1="-1266.9551"
       x2="1915.4146"
       y2="-1266.9551"
       gradientTransform="translate(-1691.9995,1584)">
      <stop
         offset="0"
         style="stop-color:#6B8F00"
         id="stop296-2-7-3-7-7-9" />
      <stop
         offset="1"
         style="stop-color:#477034"
         id="stop298-4-1-3-9-8-2" />
    </linearGradient>
    <clipPath
       id="clipPath10173-7">
      <path
         id="path10175-9"
         d="m 175.915,383.545 c 0,0 8.5,2.5 18,-4.5 5.248,-3.867 54.5,-77 24.5,-110.5 -13.826,-14.508 -33.16,-20.675 -58,-18.5 -33.354,7.478 -52.022,29.145 -56,65 -5.219,33.555 24.65,49.672 71.5,68.5 z"
         inkscape:connector-curvature="0" />
    </clipPath>
    <linearGradient
       y2="-1266.9551"
       x2="1915.4146"
       y1="-1266.9551"
       x1="1863.6636"
       gradientTransform="translate(-1691.9995,1584)"
       gradientUnits="userSpaceOnUse"
       id="linearGradient10193-5"
       xlink:href="#SVGID_4_-3-1-7-7-7-8"
       inkscape:collect="always" />
    <linearGradient
       y2="-1208.9976"
       x2="1896.2441"
       y1="-1330.2778"
       x1="1831.7583"
       gradientTransform="translate(-1691.9995,1584)"
       gradientUnits="userSpaceOnUse"
       id="linearGradient3862"
       xlink:href="#SVGID_7_-9-2-7-0-6"
       inkscape:collect="always" />
    <linearGradient
       y2="-1217.6193"
       x2="1884.0618"
       y1="-1284.2949"
       x1="1781.3901"
       gradientTransform="translate(-1691.9995,1584)"
       gradientUnits="userSpaceOnUse"
       id="linearGradient3860"
       xlink:href="#SVGID_6_-4-1-8-5-0"
       inkscape:collect="always" />
    <linearGradient
       y2="-1313.2155"
       x2="1924.7854"
       y1="-1222.6426"
       x1="1851.4409"
       gradientTransform="translate(-1691.9995,1584)"
       gradientUnits="userSpaceOnUse"
       id="linearGradient3858"
       xlink:href="#linearGradient3830"
       inkscape:collect="always" />
    <linearGradient
       y2="-1212.7676"
       x2="1896.1699"
       y1="-1325.8252"
       x1="1819.9116"
       gradientTransform="translate(-1691.9995,1584)"
       gradientUnits="userSpaceOnUse"
       id="linearGradient3854"
       xlink:href="#SVGID_3_-3-8-0-1-3"
       inkscape:collect="always" />
    <linearGradient
       y2="-1266.9551"
       x2="1915.4146"
       y1="-1266.9551"
       x1="1863.6636"
       gradientTransform="translate(-1691.9995,1584)"
       gradientUnits="userSpaceOnUse"
       id="linearGradient3852"
       xlink:href="#SVGID_4_-3-1-7-7-7"
       inkscape:collect="always" />
    <linearGradient
       y2="-1208.9976"
       x2="1896.2441"
       y1="-1330.2778"
       x1="1831.7583"
       gradientTransform="translate(-1691.9995,1584)"
       gradientUnits="userSpaceOnUse"
       id="linearGradient3828"
       xlink:href="#SVGID_7_-9-2-7-0-6"
       inkscape:collect="always" />
    <linearGradient
       y2="-1217.6193"
       x2="1884.0618"
       y1="-1284.2949"
       x1="1781.3901"
       gradientTransform="translate(-1691.9995,1584)"
       gradientUnits="userSpaceOnUse"
       id="linearGradient3826"
       xlink:href="#SVGID_6_-4-1-8-5-0"
       inkscape:collect="always" />
    <linearGradient
       y2="-1313.2155"
       x2="1924.7854"
       y1="-1222.6426"
       x1="1851.4409"
       gradientTransform="translate(-1691.9995,1584)"
       gradientUnits="userSpaceOnUse"
       id="linearGradient3824"
       xlink:href="#linearGradient3830"
       inkscape:collect="always" />
    <linearGradient
       y2="-1212.7676"
       x2="1896.1699"
       y1="-1325.8252"
       x1="1819.9116"
       gradientTransform="translate(-1691.9995,1584)"
       gradientUnits="userSpaceOnUse"
       id="linearGradient3820"
       xlink:href="#SVGID_3_-3-8-0-1-3"
       inkscape:collect="always" />
    <linearGradient
       y2="-1266.9551"
       x2="1915.4146"
       y1="-1266.9551"
       x1="1863.6636"
       gradientTransform="translate(-1691.9995,1584)"
       gradientUnits="userSpaceOnUse"
       id="linearGradient3818"
       xlink:href="#SVGID_4_-3-1-7-7-7"
       inkscape:collect="always" />
    <linearGradient
       inkscape:collect="always"
       xlink:href="#SVGID_4_-3-1-7-7-7"
       id="linearGradient10193"
       gradientUnits="userSpaceOnUse"
       gradientTransform="translate(-1691.9995,1584)"
       x1="1863.6636"
       y1="-1266.9551"
       x2="1915.4146"
       y2="-1266.9551" />
    <clipPath
       id="clipPath10173">
      <path
         inkscape:connector-curvature="0"
         d="m 175.915,383.545 c 0,0 8.5,2.5 18,-4.5 5.248,-3.867 54.5,-77 24.5,-110.5 -13.826,-14.508 -33.16,-20.675 -58,-18.5 -33.354,7.478 -52.022,29.145 -56,65 -5.219,33.555 24.65,49.672 71.5,68.5 z"
         id="path10175" />
    </clipPath>
    <linearGradient
       gradientTransform="translate(-1691.9995,1584)"
       y2="-1266.9551"
       x2="1915.4146"
       y1="-1266.9551"
       x1="1863.6636"
       gradientUnits="userSpaceOnUse"
       id="SVGID_4_-3-1-7-7-7">
      <stop
         id="stop296-2-7-3-7-7"
         style="stop-color:#6B8F00"
         offset="0" />
      <stop
         id="stop298-4-1-3-9-8"
         style="stop-color:#477034"
         offset="1" />
    </linearGradient>
    <linearGradient
       y2="-1266.9551"
       x2="1915.4146"
       y1="-1266.9551"
       x1="1863.6636"
       gradientTransform="translate(-1691.9995,1584)"
       gradientUnits="userSpaceOnUse"
       id="linearGradient10121"
       xlink:href="#SVGID_4_-3-1-7-7-7"
       inkscape:collect="always" />
    <clipPath
       id="clipPath10165">
      <path
         inkscape:connector-curvature="0"
         d="m 175.915,383.545 c 0,0 8.5,2.5 18,-4.5 5.248,-3.867 54.5,-77 24.5,-110.5 -13.826,-14.508 -33.16,-20.675 -58,-18.5 -33.354,7.478 -52.022,29.145 -56,65 -5.219,33.555 24.65,49.672 71.5,68.5 z"
         id="path10167" />
    </clipPath>
    <linearGradient
       gradientTransform="translate(-1691.9995,1584)"
       y2="-1212.7676"
       x2="1896.1699"
       y1="-1325.8252"
       x1="1819.9116"
       gradientUnits="userSpaceOnUse"
       id="SVGID_3_-3-8-0-1-3">
      <stop
         id="stop289-4-8-7-3-9"
         style="stop-color:#144D29"
         offset="0" />
      <stop
         id="stop291-08-2-1-8-8"
         style="stop-color:#0F2415"
         offset="1" />
    </linearGradient>
    <linearGradient
       y2="-1212.7676"
       x2="1896.1699"
       y1="-1325.8252"
       x1="1819.9116"
       gradientTransform="translate(-1691.9995,1584)"
       gradientUnits="userSpaceOnUse"
       id="linearGradient9242"
       xlink:href="#SVGID_3_-3-8-0-1-3"
       inkscape:collect="always" />
    <linearGradient
       id="linearGradient3940-0-7-0-3-8"
       inkscape:collect="always">
      <stop
         id="stop3942-5-40-1-3-4"
         offset="0"
         style="stop-color:#4b2202;stop-opacity:1;" />
      <stop
         id="stop3944-9-9-4-4-1"
         offset="1"
         style="stop-color:#4b2202;stop-opacity:0;" />
    </linearGradient>
    <clipPath
       id="clipPath10153">
      <path
         inkscape:connector-curvature="0"
         d="m 175.915,383.545 c 0,0 8.5,2.5 18,-4.5 5.248,-3.867 54.5,-77 24.5,-110.5 -13.826,-14.508 -33.16,-20.675 -58,-18.5 -33.354,7.478 -52.022,29.145 -56,65 -5.219,33.555 24.65,49.672 71.5,68.5 z"
         id="path10155" />
    </clipPath>
    <linearGradient
       gradientTransform="translate(-1691.9995,1584)"
       y2="-1313.2155"
       x2="1924.7854"
       y1="-1222.6426"
       x1="1851.4409"
       gradientUnits="userSpaceOnUse"
       id="SVGID_5_-6-5-81-1-8">
      <stop
         id="stop303-62-2-8-9-3"
         style="stop-color:#598400;stop-opacity:1"
         offset="0" />
      <stop
         offset="0.5"
         style="stop-color:#a0d12b;stop-opacity:1"
         id="stop3793" />
      <stop
         id="stop305-9-7-26-8-7"
         style="stop-color:#d1de96;stop-opacity:1"
         offset="1" />
    </linearGradient>
    <linearGradient
       y2="-1313.2155"
       x2="1924.7854"
       y1="-1222.6426"
       x1="1851.4409"
       gradientTransform="translate(-1691.9995,1584)"
       gradientUnits="userSpaceOnUse"
       id="linearGradient9246"
       xlink:href="#SVGID_5_-6-5-81-1-8"
       inkscape:collect="always" />
    <clipPath
       id="clipPath10145">
      <path
         inkscape:connector-curvature="0"
         d="m 175.915,383.545 c 0,0 8.5,2.5 18,-4.5 5.248,-3.867 54.5,-77 24.5,-110.5 -13.826,-14.508 -33.16,-20.675 -58,-18.5 -33.354,7.478 -52.022,29.145 -56,65 -5.219,33.555 24.65,49.672 71.5,68.5 z"
         id="path10147" />
    </clipPath>
    <linearGradient
       gradientTransform="translate(-1691.9995,1584)"
       y2="-1217.6193"
       x2="1884.0618"
       y1="-1284.2949"
       x1="1781.3901"
       gradientUnits="userSpaceOnUse"
       id="SVGID_6_-4-1-8-5-0">
      <stop
         id="stop310-9-4-0-0-7"
         style="stop-color:#F7B512"
         offset="0" />
      <stop
         id="stop312-3-2-1-2-3"
         style="stop-color:#968A0A"
         offset="0.6797" />
      <stop
         id="stop314-1-3-25-8-4"
         style="stop-color:#968A0A"
         offset="1" />
    </linearGradient>
    <linearGradient
       y2="-1217.6193"
       x2="1884.0618"
       y1="-1284.2949"
       x1="1781.3901"
       gradientTransform="translate(-1691.9995,1584)"
       gradientUnits="userSpaceOnUse"
       id="linearGradient9248"
       xlink:href="#SVGID_6_-4-1-8-5-0"
       inkscape:collect="always" />
    <clipPath
       id="SVGID_2_-81-4-7-7-8">
      <path
         inkscape:connector-curvature="0"
         d="m 175.915,383.545 c 0,0 8.5,2.5 18,-4.5 5.248,-3.867 54.5,-77 24.5,-110.5 -13.826,-14.508 -33.16,-20.675 -58,-18.5 -33.354,7.478 -52.022,29.145 -56,65 -5.219,33.555 24.65,49.672 71.5,68.5 z"
         id="use286-5-5-7-4-0" />
    </clipPath>
    <linearGradient
       gradientTransform="translate(-1691.9995,1584)"
       y2="-1208.9976"
       x2="1896.2441"
       y1="-1330.2778"
       x1="1831.7583"
       gradientUnits="userSpaceOnUse"
       id="SVGID_7_-9-2-7-0-6">
      <stop
         id="stop319-95-1-8-2-5"
         style="stop-color:#00B052"
         offset="0" />
      <stop
         id="stop321-5-6-3-4-1"
         style="stop-color:#144D29"
         offset="0.7891" />
      <stop
         id="stop323-5-8-5-8-0"
         style="stop-color:#144D29"
         offset="1" />
    </linearGradient>
    <linearGradient
       y2="-1208.9976"
       x2="1896.2441"
       y1="-1330.2778"
       x1="1831.7583"
       gradientTransform="translate(-1691.9995,1584)"
       gradientUnits="userSpaceOnUse"
       id="linearGradient10119"
       xlink:href="#SVGID_7_-9-2-7-0-6"
       inkscape:collect="always" />
    <linearGradient
       id="linearGradient3830"
       gradientUnits="userSpaceOnUse"
       x1="1851.4409"
       y1="-1222.6426"
       x2="1924.7854"
       y2="-1313.2155"
       gradientTransform="translate(-1691.9995,1584)">
      <stop
         offset="0"
         style="stop-color:#598400;stop-opacity:1"
         id="stop3832" />
      <stop
         id="stop3834"
         style="stop-color:#a6d635;stop-opacity:1"
         offset="0.5" />
      <stop
         offset="1"
         style="stop-color:#edf2d6;stop-opacity:1"
         id="stop3836" />
    </linearGradient>
    <linearGradient
       inkscape:collect="always"
       xlink:href="#SVGID_4_-3-1-7-7-7"
       id="linearGradient3469"
       gradientUnits="userSpaceOnUse"
       gradientTransform="translate(-1691.9995,1584)"
       x1="1863.6636"
       y1="-1266.9551"
       x2="1915.4146"
       y2="-1266.9551" />
    <linearGradient
       inkscape:collect="always"
       xlink:href="#SVGID_3_-3-8-0-1-3"
       id="linearGradient3471"
       gradientUnits="userSpaceOnUse"
       gradientTransform="translate(-1691.9995,1584)"
       x1="1819.9116"
       y1="-1325.8252"
       x2="1896.1699"
       y2="-1212.7676" />
    <radialGradient
       inkscape:collect="always"
       xlink:href="#linearGradient3940-0-7-0-3-8"
       id="radialGradient3473"
       gradientUnits="userSpaceOnUse"
       gradientTransform="matrix(-5.5611435,1.5617144,-5.8052472,-20.672042,-4621.3837,-7116.7037)"
       cx="-201.23479"
       cy="-385.81235"
       fx="-201.23479"
       fy="-385.81235"
       r="9.1544819" />
    <linearGradient
       inkscape:collect="always"
       xlink:href="#linearGradient3830"
       id="linearGradient3475"
       gradientUnits="userSpaceOnUse"
       gradientTransform="translate(-1691.9995,1584)"
       x1="1851.4409"
       y1="-1222.6426"
       x2="1924.7854"
       y2="-1313.2155" />
    <linearGradient
       inkscape:collect="always"
       xlink:href="#SVGID_6_-4-1-8-5-0"
       id="linearGradient3477"
       gradientUnits="userSpaceOnUse"
       gradientTransform="translate(-1691.9995,1584)"
       x1="1781.3901"
       y1="-1284.2949"
       x2="1884.0618"
       y2="-1217.6193" />
    <linearGradient
       inkscape:collect="always"
       xlink:href="#SVGID_7_-9-2-7-0-6"
       id="linearGradient3479"
       gradientUnits="userSpaceOnUse"
       gradientTransform="translate(-1691.9995,1584)"
       x1="1831.7583"
       y1="-1330.2778"
       x2="1896.2441"
       y2="-1208.9976" />
    <radialGradient
       inkscape:collect="always"
       xlink:href="#linearGradient3940-0-7-0-3-8"
       id="radialGradient3528"
       gradientUnits="userSpaceOnUse"
       gradientTransform="matrix(-4.4586614,1.2521086,-4.6543722,-16.573864,-2234.8901,-5808.855)"
       cx="-201.23479"
       cy="-385.81235"
       fx="-201.23479"
       fy="-385.81235"
       r="9.1544819" />
    <linearGradient
       inkscape:collect="always"
       xlink:href="#SVGID_4_-3-1-7-7-7"
       id="linearGradient3540"
       gradientUnits="userSpaceOnUse"
       gradientTransform="translate(-1691.9995,1584)"
       x1="1863.6636"
       y1="-1266.9551"
       x2="1915.4146"
       y2="-1266.9551" />
    <linearGradient
       inkscape:collect="always"
       xlink:href="#SVGID_3_-3-8-0-1-3"
       id="linearGradient3542"
       gradientUnits="userSpaceOnUse"
       gradientTransform="translate(-1691.9995,1584)"
       x1="1819.9116"
       y1="-1325.8252"
       x2="1896.1699"
       y2="-1212.7676" />
    <radialGradient
       inkscape:collect="always"
       xlink:href="#linearGradient3940-0-7-0-3-8"
       id="radialGradient3544"
       gradientUnits="userSpaceOnUse"
       gradientTransform="matrix(-4.4586614,1.2521086,-4.6543722,-16.573864,-2234.8901,-5808.855)"
       cx="-201.23479"
       cy="-385.81235"
       fx="-201.23479"
       fy="-385.81235"
       r="9.1544819" />
    <linearGradient
       inkscape:collect="always"
       xlink:href="#linearGradient3830"
       id="linearGradient3546"
       gradientUnits="userSpaceOnUse"
       gradientTransform="translate(-1691.9995,1584)"
       x1="1851.4409"
       y1="-1222.6426"
       x2="1924.7854"
       y2="-1313.2155" />
    <linearGradient
       inkscape:collect="always"
       xlink:href="#SVGID_6_-4-1-8-5-0"
       id="linearGradient3548"
       gradientUnits="userSpaceOnUse"
       gradientTransform="translate(-1691.9995,1584)"
       x1="1781.3901"
       y1="-1284.2949"
       x2="1884.0618"
       y2="-1217.6193" />
    <linearGradient
       inkscape:collect="always"
       xlink:href="#SVGID_7_-9-2-7-0-6"
       id="linearGradient3550"
       gradientUnits="userSpaceOnUse"
       gradientTransform="translate(-1691.9995,1584)"
       x1="1831.7583"
       y1="-1330.2778"
       x2="1896.2441"
       y2="-1208.9976" />
    <radialGradient
       inkscape:collect="always"
       xlink:href="#linearGradient3940-0-7-0-3-8"
       id="radialGradient3556"
       gradientUnits="userSpaceOnUse"
       gradientTransform="matrix(-4.4586614,1.2521086,-4.6543722,-16.573864,-2090.6012,-5808.855)"
       cx="-201.23479"
       cy="-385.81235"
       fx="-201.23479"
       fy="-385.81235"
       r="9.1544819" />
    <linearGradient
       inkscape:collect="always"
       xlink:href="#linearGradient8623"
       id="linearGradient3560"
       gradientUnits="userSpaceOnUse"
       gradientTransform="translate(-1691.9995,1584)"
       x1="1819.9116"
       y1="-1325.8252"
       x2="1896.1699"
       y2="-1212.7676" />
    <linearGradient
       inkscape:collect="always"
       xlink:href="#linearGradient8446"
       id="linearGradient3562"
       gradientUnits="userSpaceOnUse"
       gradientTransform="translate(-1691.9995,1584)"
       x1="1863.6636"
       y1="-1266.9551"
       x2="1915.4146"
       y2="-1266.9551" />
    <linearGradient
       inkscape:collect="always"
       xlink:href="#linearGradient8440"
       id="linearGradient3564"
       gradientUnits="userSpaceOnUse"
       gradientTransform="translate(-1691.9995,1584)"
       x1="1851.4409"
       y1="-1222.6426"
       x2="1924.7854"
       y2="-1313.2155" />
    <linearGradient
       inkscape:collect="always"
       xlink:href="#linearGradient8651"
       id="linearGradient3566"
       gradientUnits="userSpaceOnUse"
       gradientTransform="translate(-1691.9995,1584)"
       x1="1781.3901"
       y1="-1284.2949"
       x2="1884.0618"
       y2="-1217.6193" />
    <linearGradient
       inkscape:collect="always"
       xlink:href="#linearGradient8539"
       id="linearGradient3568"
       gradientUnits="userSpaceOnUse"
       gradientTransform="translate(-1691.9995,1584)"
       x1="1831.7583"
       y1="-1330.2778"
       x2="1896.2441"
       y2="-1208.9976" />
  </defs>
  <sodipodi:namedview
     id="base"
     pagecolor="#ffffff"
     bordercolor="#666666"
     borderopacity="1.0"
     inkscape:pageopacity="0.0"
     inkscape:pageshadow="2"
     inkscape:zoom="0.91151765"
     inkscape:cx="-63.921286"
     inkscape:cy="71.779081"
     inkscape:document-units="px"
     inkscape:current-layer="layer1"
     showgrid="false"
     fit-margin-top="0"
     fit-margin-left="0"
     fit-margin-right="0"
     fit-margin-bottom="0"
     inkscape:window-width="1366"
     inkscape:window-height="706"
     inkscape:window-x="-8"
     inkscape:window-y="-8"
     inkscape:window-maximized="1" />
  <metadata
     id="metadata6995">
    <rdf:RDF>
      <cc:Work
         rdf:about="">
        <dc:format>image/svg+xml</dc:format>
        <dc:type
           rdf:resource="http://purl.org/dc/dcmitype/StillImage" />
        <dc:title></dc:title>
      </cc:Work>
    </rdf:RDF>
  </metadata>
  <g
     inkscape:label="Layer 1"
     inkscape:groupmode="layer"
     id="layer1"
     transform="translate(-513.93589,-187.98735)">
    <g
       id="g10114"
       transform="translate(894.00912,-1403.2874)">
      <g
         inkscape:export-ydpi="202.61"
         inkscape:export-xdpi="202.61"
         inkscape:export-filename="C:\wikivoyage_for_now\logo\2013\Wikivoyage_fantasy_balloon_logo3_colors.png"
         transform="translate(-1145.0797,1011.8521)"
         id="g8471">
        <g
           transform="matrix(0.99705275,-0.07671903,0.07671903,0.99705275,636.88436,343.84599)"
           id="g8473">
          <defs
             id="defs8475">
            <path
               id="path8477"
               d="m 175.915,383.545 c 0,0 8.5,2.5 18,-4.5 5.248,-3.867 54.5,-77 24.5,-110.5 -13.826,-14.508 -33.16,-20.675 -58,-18.5 -33.354,7.478 -52.022,29.145 -56,65 -5.219,33.555 24.65,49.672 71.5,68.5 z"
               inkscape:connector-curvature="0" />
          </defs>
          <clipPath
             id="clipPath8479">
            <path
               id="path8481"
               d="m 175.915,383.545 c 0,0 8.5,2.5 18,-4.5 5.248,-3.867 54.5,-77 24.5,-110.5 -13.826,-14.508 -33.16,-20.675 -58,-18.5 -33.354,7.478 -52.022,29.145 -56,65 -5.219,33.555 24.65,49.672 71.5,68.5 z"
               inkscape:connector-curvature="0" />
          </clipPath>
          <linearGradient
             id="linearGradient8483"
             gradientUnits="userSpaceOnUse"
             x1="1819.9116"
             y1="-1325.8252"
             x2="1896.1699"
             y2="-1212.7676"
             gradientTransform="translate(-1691.9995,1584)">
            <stop
               offset="0"
               style="stop-color:#144D29"
               id="stop8485" />
            <stop
               offset="1"
               style="stop-color:#0F2415"
               id="stop8487" />
          </linearGradient>
          <path
             clip-path="url(#SVGID_2_-81-80)"
             clip-rule="evenodd"
             stroke-miterlimit="3.8637"
             d="m 168.415,245.545 c -20.817,57.379 -14.984,103.38 17.5,138 l -5,3 c -43.363,-27.867 -78.25,-82.5 -58,-125 l 45.5,-16 z"
             id="path8489"
             style="fill:url(#linearGradient3560);fill-rule:evenodd;stroke:none"
             inkscape:connector-curvature="0" />
          <linearGradient
             id="linearGradient8491"
             gradientUnits="userSpaceOnUse"
             x1="1863.6636"
             y1="-1266.9551"
             x2="1915.4146"
             y2="-1266.9551"
             gradientTransform="translate(-1691.9995,1584)">
            <stop
               offset="0"
               style="stop-color:#6B8F00"
               id="stop8493" />
            <stop
               offset="1"
               style="stop-color:#477034"
               id="stop8495" />
          </linearGradient>
          <path
             clip-path="url(#SVGID_2_-81-80)"
             clip-rule="evenodd"
             d="m 198.665,250.295 c -38,74.5 -31.415,120.687 -7.75,133.5 l 1,-4.25 c -0.5,-39 7.75,-67 31.5,-108.5 l -24.75,-20.75 z"
             id="path8497"
             style="fill:url(#linearGradient3562);fill-rule:evenodd"
             inkscape:connector-curvature="0" />
          <linearGradient
             id="linearGradient8499"
             gradientUnits="userSpaceOnUse"
             x1="1851.4409"
             y1="-1222.6426"
             x2="1924.7854"
             y2="-1313.2155"
             gradientTransform="translate(-1691.9995,1584)">
            <stop
               offset="0"
               style="stop-color:#8FD400"
               id="stop8501" />
            <stop
               offset="1"
               style="stop-color:#DAE4AA"
               id="stop8503" />
          </linearGradient>
          <path
             clip-path="url(#SVGID_2_-81-80)"
             clip-rule="evenodd"
             d="m 238.665,275.545 c -1,-0.5 -44.5,-25.5 -44.5,-25.5 20,45 17,88.5 -8.25,132.75 l 11.25,-0.75 c 29.35,-30.084 43.184,-65.585 41.5,-106.5 z"
             id="path8505"
             style="fill:url(#linearGradient3564);fill-rule:evenodd"
             inkscape:connector-curvature="0" />
          <linearGradient
             id="linearGradient8507"
             gradientUnits="userSpaceOnUse"
             x1="1781.3901"
             y1="-1284.2949"
             x2="1884.0618"
             y2="-1217.6193"
             gradientTransform="translate(-1691.9995,1584)">
            <stop
               offset="0"
               style="stop-color:#F7B512"
               id="stop8509" />
            <stop
               offset="0.6797"
               style="stop-color:#968A0A"
               id="stop8511" />
            <stop
               offset="1"
               style="stop-color:#968A0A"
               id="stop8513" />
          </linearGradient>
          <path
             clip-path="url(#SVGID_2_-81-80)"
             clip-rule="evenodd"
             d="m 180.915,383.545 c -60.509,-43.533 -62.487,-63.768 -72.75,-112.75 l -16.75,65.5 c 13.628,17.546 42.046,34.963 85.25,52.25 l 4.25,-5 z"
             id="path8515"
             style="fill:url(#linearGradient3566);fill-rule:evenodd"
             inkscape:connector-curvature="0" />
          <linearGradient
             id="linearGradient8517"
             gradientUnits="userSpaceOnUse"
             x1="1831.7583"
             y1="-1330.2778"
             x2="1896.2441"
             y2="-1208.9976"
             gradientTransform="translate(-1691.9995,1584)">
            <stop
               offset="0"
               style="stop-color:#00B052"
               id="stop8519" />
            <stop
               offset="0.7891"
               style="stop-color:#144D29"
               id="stop8521" />
            <stop
               offset="1"
               style="stop-color:#144D29"
               id="stop8523" />
          </linearGradient>
          <path
             clip-path="url(#SVGID_2_-81-80)"
             clip-rule="evenodd"
             d="m 184.415,385.545 c 12.5,-12.75 29,-96.5 -21.25,-138.5 -17.913,1.176 -33.497,10.176 -46.75,27 43.709,36.221 63.5,67.25 63.75,111.75 l 4.25,-0.25 z"
             id="path8525"
             style="fill:url(#linearGradient3568);fill-rule:evenodd"
             inkscape:connector-curvature="0" />
        </g>
      </g>
    </g>
    <path
       sodipodi:nodetypes="sssssssss"
       inkscape:connector-curvature="0"
       id="path3844"
       d="m 614.28155,337.38912 -14.70005,4.23827 c -0.35782,0.10363 -0.66505,-0.12656 -0.83142,-0.45921 l -5.71273,-11.41515 c -0.16636,-0.33265 0.10215,-0.72807 0.45917,-0.8315 l 19.17022,-5.52824 c 0.35743,-0.10351 0.79502,0.0889 0.8315,0.45908 l 1.24288,12.70526 c 0.0369,0.37041 -0.10118,0.72847 -0.45957,0.83149 z"
       style="fill:url(#radialGradient3556);fill-opacity:1;fill-rule:evenodd;stroke:none" />
  </g>
</svg>